{"title":"Bhagwant Maan - Kulfi Garma Garam 2 - Full Punjabi Movie Audio G","uid":9323883,"size":20288412,"categoryP":"audio","categoryS":"other","magnet":"?xt=urn:btih:f603aa7cbdbbab8074f04667362c1c5578485e9e&amp;dn=Bhagwant+Maan+-+Kulfi+Garma+Garam+2+-+Full+Punjabi+Movie+Audio+G&amp;tr=udp%3A%2F%2Ftracker.openbittorrent.com%3A80&amp;tr=udp%3A%2F%2Fopen.demonii.com%3A1337&amp;tr=udp%3A%2F%2Ftracker.coppersurfer.tk%3A6969&amp;tr=udp%3A%2F%2Fexodus.desync.com%3A6969","seeders":0,"leechers":0,"uploader":"jatt13","files":2,"time":1386598482,"description":"[img]http://imageshack.us/a/img577/6841/j1g9.jpg[/img]\n[img]http://imageshack.com/a/img96/8920/d0fr.jpg[/img]\n\nGeneral\nComplete name                  : D:mp3new201310 octBhagwant Maan - Kulfi Garma Garam 2 - Full Punjabi Movie Audio GOPI SAHI PDRKulfi Garma Garam -2 (Part-1).mp3\nFormat                         : MPEG Audio\nFile size                      : 9.41 MiB\nDuration                       : 27mn 17s\nOverall bit rate mode          : Constant\nOverall bit rate               : 48.0 Kbps\nGenre                          : Other\nCover                          : Yes / Yes\nCover type                     : Cover (front)\nCover MIME                     : image/jpeg / image/jpeg\n\nAudio\nFormat                         : MPEG Audio\nFormat version                 : Version 1\nFormat profile                 : Layer 3\nDuration                       : 27mn 25s\nBit rate mode                  : Constant\nBit rate                       : 48.0 Kbps\nChannel count                  : 1 channel\nSampling rate                  : 44.1 KHz\nCompression mode               : Lossy\nStream size                    : 9.37 MiB (100%)\n\n\nGeneral\nComplete name                  : D:mp3new201310 octBhagwant Maan - Kulfi Garma Garam 2 - Full Punjabi Movie Audio GOPI SAHI PDRKulfi Garma Garam -2 (Part-2).mp3\nFormat                         : MPEG Audio\nFile size                      : 9.94 MiB\nDuration                       : 28mn 49s\nOverall bit rate mode          : Constant\nOverall bit rate               : 48.0 Kbps\nGenre                          : Other\nCover                          : Yes / Yes\nCover type                     : Cover (front)\nCover MIME                     : image/jpeg / image/jpeg\n\nAudio\nFormat                         : MPEG Audio\nFormat version                 : Version 1\nFormat profile                 : Layer 3\nDuration                       : 28mn 57s\nBit rate mode                  : Constant\nBit rate                       : 48.0 Kbps\nChannel count                  : 1 channel\nSampling rate                  : 44.1 KHz\nCompression mode               : Lossy\nStream size                    : 9.90 MiB (100%)\n\n","torrent":{"xt":"urn:btih:f603aa7cbdbbab8074f04667362c1c5578485e9e","amp;dn":"Bhagwant+Maan+-+Kulfi+Garma+Garam+2+-+Full+Punjabi+Movie+Audio+G","amp;tr":["udp%3A%2F%2Ftracker.openbittorrent.com%3A80","udp%3A%2F%2Fopen.demonii.com%3A1337","udp%3A%2F%2Ftracker.coppersurfer.tk%3A6969","udp%3A%2F%2Fexodus.desync.com%3A6969"],"infoHash":"f603aa7cbdbbab8074f04667362c1c5578485e9e","infoHashBuffer":{"type":"Buffer","data":[246,3,170,124,189,187,171,128,116,240,70,103,54,44,28,85,120,72,94,158]},"announce":[],"urlList":[]}}